<svg width="627" height="246" viewBox="0 0 627 246" fill="none" xmlns="http://www.w3.org/2000/svg">
<path d="M17.7167 168.78L29.1147 208.55L40.3487 168.78H57.1587L37.0687 227H21.1607L0.824713 168.78H17.7167ZM62.9705 227V183.868H78.5505V227H62.9705ZM62.9705 180.26V167.14H78.5505V180.26H62.9705ZM106.195 227.82C102.423 227.82 98.706 227.219 95.0434 226.016C91.4354 224.759 88.374 222.955 85.8594 220.604L91.1894 211.01C93.868 212.759 96.4374 214.126 98.8974 215.11C101.412 216.094 103.681 216.586 105.703 216.586C106.851 216.586 107.699 216.449 108.245 216.176C108.792 215.848 109.065 215.329 109.065 214.618C109.065 214.126 108.874 213.716 108.491 213.388C108.109 213.06 107.48 212.732 106.605 212.404C105.785 212.076 104.719 211.721 103.407 211.338C100.018 210.135 97.1754 209.015 94.8794 207.976C92.638 206.937 90.9434 205.68 89.7954 204.204C88.702 202.673 88.1554 200.651 88.1554 198.136C88.1554 195.184 88.8934 192.587 90.3694 190.346C91.8454 188.05 93.95 186.246 96.6834 184.934C99.4714 183.622 102.806 182.966 106.687 182.966C109.585 182.966 112.482 183.431 115.379 184.36C118.331 185.235 121.174 186.847 123.907 189.198L118.003 198.71C115.27 197.015 112.947 195.813 111.033 195.102C109.175 194.391 107.507 194.036 106.031 194.036C105.321 194.036 104.692 194.118 104.145 194.282C103.653 194.446 103.271 194.692 102.997 195.02C102.724 195.348 102.587 195.785 102.587 196.332C102.587 196.879 102.779 197.343 103.161 197.726C103.544 198.054 104.145 198.382 104.965 198.71C105.785 198.983 106.824 199.311 108.081 199.694C111.799 200.787 114.833 201.908 117.183 203.056C119.534 204.149 121.256 205.489 122.349 207.074C123.497 208.659 124.071 210.737 124.071 213.306C124.071 217.843 122.459 221.397 119.233 223.966C116.063 226.535 111.717 227.82 106.195 227.82ZM132.433 227V183.868H148.013V227H132.433ZM132.433 180.26V167.14H148.013V180.26H132.433ZM188.614 224.622C187.193 225.223 185.662 225.797 184.022 226.344C182.437 226.836 180.797 227.219 179.102 227.492C177.462 227.765 175.85 227.902 174.264 227.902C171.914 227.902 169.754 227.519 167.786 226.754C165.818 225.934 164.233 224.622 163.03 222.818C161.882 220.959 161.308 218.472 161.308 215.356V195.594H155.978V183.868H161.308V170.338H176.888V183.868H185.334V195.594H176.888V209.862C176.888 211.283 177.189 212.295 177.79 212.896C178.392 213.443 179.212 213.716 180.25 213.716C181.016 213.716 181.89 213.579 182.874 213.306C183.858 213.033 184.842 212.705 185.826 212.322L188.614 224.622ZM196.556 227V168.78H221.648C224.491 168.78 227.115 169.354 229.52 170.502C231.925 171.65 234.003 173.208 235.752 175.176C237.501 177.089 238.841 179.249 239.77 181.654C240.754 184.059 241.246 186.492 241.246 188.952C241.246 192.396 240.426 195.649 238.786 198.71C237.201 201.771 234.959 204.286 232.062 206.254C229.219 208.167 225.885 209.124 222.058 209.124H212.546V227H196.556ZM212.546 195.184H220.992C221.648 195.184 222.277 194.993 222.878 194.61C223.479 194.227 223.971 193.571 224.354 192.642C224.791 191.713 225.01 190.483 225.01 188.952C225.01 187.312 224.764 186.055 224.272 185.18C223.835 184.251 223.261 183.622 222.55 183.294C221.894 182.911 221.238 182.72 220.582 182.72H212.546V195.184ZM248.63 212.24V183.868H264.21V208.714C264.21 210.573 264.62 212.049 265.44 213.142C266.315 214.181 267.49 214.7 268.966 214.7C269.786 214.7 270.606 214.591 271.426 214.372C272.246 214.153 273.066 213.716 273.886 213.06C274.761 212.404 275.608 211.475 276.428 210.272V183.868H292.008V209.78C292.008 211.256 292.227 212.295 292.664 212.896C293.101 213.443 293.867 213.771 294.96 213.88V227C293.593 227.273 292.363 227.465 291.27 227.574C290.177 227.738 289.22 227.82 288.4 227.82C285.776 227.82 283.699 227.328 282.168 226.344C280.637 225.36 279.653 223.857 279.216 221.834L278.888 220.276C276.865 222.955 274.433 224.895 271.59 226.098C268.802 227.246 265.631 227.82 262.078 227.82C257.759 227.82 254.425 226.481 252.074 223.802C249.778 221.123 248.63 217.269 248.63 212.24ZM333.065 197.152C330.058 197.152 327.325 197.48 324.865 198.136C322.405 198.792 320.574 199.885 319.371 201.416V227H303.791V183.868H318.059V192.068C319.59 189.171 321.503 186.957 323.799 185.426C326.095 183.841 328.528 183.048 331.097 183.048C331.698 183.048 332.108 183.048 332.327 183.048C332.6 183.048 332.846 183.075 333.065 183.13V197.152ZM393.254 183.868H407.932L390.302 227H377.592L371.77 210.6L365.948 227H353.238L335.608 183.868H350.286L360.536 212.404L363.406 202.728L355.534 183.868H368.08L371.77 196.496L375.46 183.868H388.006L380.134 202.728L383.004 212.404L393.254 183.868ZM433.25 227.82C429.423 227.82 426.034 227.219 423.082 226.016C420.13 224.813 417.642 223.173 415.62 221.096C413.652 218.964 412.148 216.559 411.11 213.88C410.126 211.201 409.634 208.386 409.634 205.434C409.634 202.482 410.126 199.667 411.11 196.988C412.148 194.255 413.652 191.849 415.62 189.772C417.642 187.695 420.13 186.055 423.082 184.852C426.034 183.649 429.423 183.048 433.25 183.048C437.131 183.048 440.52 183.649 443.418 184.852C446.37 186.055 448.83 187.695 450.798 189.772C452.82 191.849 454.324 194.255 455.308 196.988C456.346 199.667 456.866 202.482 456.866 205.434C456.866 208.386 456.346 211.201 455.308 213.88C454.324 216.559 452.82 218.964 450.798 221.096C448.83 223.173 446.37 224.813 443.418 226.016C440.52 227.219 437.131 227.82 433.25 227.82ZM425.624 205.434C425.624 207.347 425.952 209.015 426.608 210.436C427.264 211.803 428.166 212.869 429.314 213.634C430.462 214.345 431.774 214.7 433.25 214.7C434.726 214.7 436.038 214.345 437.186 213.634C438.334 212.869 439.236 211.803 439.892 210.436C440.548 209.015 440.876 207.347 440.876 205.434C440.876 203.521 440.548 201.881 439.892 200.514C439.236 199.093 438.334 198.027 437.186 197.316C436.038 196.551 434.726 196.168 433.25 196.168C431.774 196.168 430.462 196.551 429.314 197.316C428.166 198.027 427.264 199.093 426.608 200.514C425.952 201.881 425.624 203.521 425.624 205.434ZM494.115 197.152C491.108 197.152 488.375 197.48 485.915 198.136C483.455 198.792 481.624 199.885 480.421 201.416V227H464.841V183.868H479.109V192.068C480.64 189.171 482.553 186.957 484.849 185.426C487.145 183.841 489.578 183.048 492.147 183.048C492.748 183.048 493.158 183.048 493.377 183.048C493.65 183.048 493.896 183.075 494.115 183.13V197.152ZM522.652 227.82C518.88 227.82 515.518 227.246 512.566 226.098C509.614 224.895 507.127 223.283 505.104 221.26C503.136 219.237 501.633 216.914 500.594 214.29C499.556 211.666 499.036 208.905 499.036 206.008C499.036 201.853 499.938 198.054 501.742 194.61C503.546 191.111 506.198 188.323 509.696 186.246C513.195 184.114 517.514 183.048 522.652 183.048C527.791 183.048 532.11 184.087 535.608 186.164C539.107 188.241 541.758 190.975 543.562 194.364C545.366 197.753 546.268 201.443 546.268 205.434C546.268 206.254 546.214 207.101 546.104 207.976C546.05 208.796 545.968 209.534 545.858 210.19H515.6C515.71 211.721 516.12 212.978 516.83 213.962C517.596 214.891 518.525 215.575 519.618 216.012C520.766 216.449 521.942 216.668 523.144 216.668C524.839 216.668 526.424 216.285 527.9 215.52C529.431 214.755 530.442 213.689 530.934 212.322L544.136 216.094C542.988 218.39 541.376 220.413 539.298 222.162C537.276 223.911 534.87 225.305 532.082 226.344C529.294 227.328 526.151 227.82 522.652 227.82ZM515.272 200.842H529.54C529.376 199.421 528.966 198.218 528.31 197.234C527.709 196.25 526.889 195.485 525.85 194.938C524.866 194.391 523.718 194.118 522.406 194.118C521.094 194.118 519.919 194.391 518.88 194.938C517.896 195.485 517.076 196.25 516.42 197.234C515.819 198.218 515.436 199.421 515.272 200.842ZM552.859 244.138C550.618 244.138 548.458 243.755 546.381 242.99C544.249 242.225 542.336 241.131 540.641 239.71L547.037 229.132C547.474 229.624 548.048 230.007 548.759 230.28C549.47 230.608 550.18 230.772 550.891 230.772C551.602 230.772 552.176 230.635 552.613 230.362C553.105 230.089 553.488 229.679 553.761 229.132C554.034 228.585 554.171 227.957 554.171 227.246V183.868H569.751V226.016C569.751 229.569 569.013 232.713 567.537 235.446C566.116 238.179 564.148 240.311 561.633 241.842C559.118 243.373 556.194 244.138 552.859 244.138ZM554.171 180.26V167.14H569.751V180.26H554.171ZM601.324 227.82C597.497 227.82 594.108 227.219 591.156 226.016C588.204 224.813 585.717 223.173 583.694 221.096C581.726 218.964 580.223 216.559 579.184 213.88C578.2 211.201 577.708 208.386 577.708 205.434C577.708 202.482 578.2 199.667 579.184 196.988C580.223 194.255 581.726 191.849 583.694 189.772C585.717 187.695 588.204 186.055 591.156 184.852C594.108 183.649 597.497 183.048 601.324 183.048C605.205 183.048 608.595 183.649 611.492 184.852C614.444 186.055 616.904 187.695 618.872 189.772C620.895 191.849 622.398 194.255 623.382 196.988C624.421 199.667 624.94 202.482 624.94 205.434C624.94 208.386 624.421 211.201 623.382 213.88C622.398 216.559 620.895 218.964 618.872 221.096C616.904 223.173 614.444 224.813 611.492 226.016C608.595 227.219 605.205 227.82 601.324 227.82ZM593.698 205.434C593.698 207.347 594.026 209.015 594.682 210.436C595.338 211.803 596.24 212.869 597.388 213.634C598.536 214.345 599.848 214.7 601.324 214.7C602.8 214.7 604.112 214.345 605.26 213.634C606.408 212.869 607.31 211.803 607.966 210.436C608.622 209.015 608.95 207.347 608.95 205.434C608.95 203.521 608.622 201.881 607.966 200.514C607.31 199.093 606.408 198.027 605.26 197.316C604.112 196.551 602.8 196.168 601.324 196.168C599.848 196.168 598.536 196.551 597.388 197.316C596.24 198.027 595.338 199.093 594.682 200.514C594.026 201.881 593.698 203.521 593.698 205.434Z" fill="white"/>
<path d="M181.34 127.774C180.488 127.774 179.399 127.206 178.074 126.07C176.748 125.029 176.086 124.082 176.086 123.23V122.378C176.843 118.781 178.168 115.42 180.062 112.296C182.05 109.172 183.99 106.095 185.884 103.066C186.452 102.119 187.02 101.267 187.588 100.51C188.25 99.658 188.818 98.7587 189.292 97.812C189.67 97.0547 190.002 96.3447 190.286 95.682C190.57 95.0193 190.901 94.3567 191.28 93.694C192.321 91.99 193.41 90.3807 194.546 88.866C195.776 87.2567 196.912 85.6 197.954 83.896C198.332 83.4227 198.664 82.9493 198.948 82.476C199.326 81.908 199.658 81.34 199.942 80.772C200.415 79.92 201.314 78.5473 202.64 76.654C203.965 74.666 205.48 72.4413 207.184 69.98C208.888 67.5187 210.592 65.152 212.296 62.88C214 60.5133 215.562 58.478 216.982 56.774C218.402 54.9753 219.443 53.8393 220.106 53.366C221.147 51.1887 222.662 49.1533 224.65 47.26C226.732 45.272 228.626 43.5207 230.33 42.006C231.371 41.0593 232.838 39.8287 234.732 38.314C236.72 36.7047 238.944 35.0953 241.406 33.486C243.962 31.8767 246.518 30.504 249.074 29.368C251.63 28.232 253.949 27.664 256.032 27.664C258.114 27.664 259.866 28.374 261.286 29.794C262.706 31.1193 263.558 33.486 263.842 36.894C263.937 37.6513 263.747 38.6927 263.274 40.018C262.895 41.3433 262.516 42.29 262.138 42.858C261.381 44.0887 260.671 45.414 260.008 46.834C259.44 48.254 258.872 49.4847 258.304 50.526C257.925 51.094 257.594 51.4727 257.31 51.662C257.215 51.7567 257.073 51.804 256.884 51.804C256.505 51.804 256.268 51.5673 256.174 51.094C256.174 50.6207 256.363 50.2893 256.742 50.1C256.931 49.1533 257.262 47.544 257.736 45.272C258.209 43 258.446 40.7753 258.446 38.598C258.446 36.61 258.114 34.906 257.452 33.486C256.884 32.066 255.795 31.356 254.186 31.356C252.293 31.356 250.068 32.066 247.512 33.486C244.956 34.906 242.4 36.7047 239.844 38.882C237.288 41.0593 235.016 43.3313 233.028 45.698C231.04 47.97 229.714 49.958 229.052 51.662C228.862 52.1353 228.626 52.372 228.342 52.372C227.963 52.656 227.584 53.1293 227.206 53.792C226.827 54.36 226.543 54.8333 226.354 55.212C225.312 55.8747 224.508 56.8687 223.94 58.194C223.372 59.4247 222.804 60.5607 222.236 61.602C221.857 62.2647 221.431 62.8327 220.958 63.306C220.011 64.0633 219.017 65.1993 217.976 66.714C216.934 68.2287 216.366 69.6487 216.272 70.974C216.272 71.542 216.082 71.8733 215.704 71.968C214.094 73.104 212.864 74.2873 212.012 75.518C211.16 76.654 210.166 78.0267 209.03 79.636C206.758 82.8547 204.533 86.0733 202.356 89.292C200.178 92.5107 198.001 95.7767 195.824 99.09C195.445 99.7527 195.019 100.415 194.546 101.078C194.072 101.646 193.646 102.309 193.268 103.066C192.889 103.918 192.51 104.77 192.132 105.622C191.753 106.474 191.327 107.326 190.854 108.178C190.475 108.935 190.144 109.74 189.86 110.592C189.67 111.444 189.339 112.249 188.866 113.006C188.96 113.29 189.008 113.811 189.008 114.568C189.008 116.083 188.676 117.881 188.014 119.964C187.446 122.047 186.594 123.845 185.458 125.36C184.322 126.969 182.949 127.774 181.34 127.774ZM121.558 119.68C120.232 119.68 119.191 119.017 118.434 117.692C117.676 116.367 117.25 115.231 117.156 114.284C116.966 112.201 117.298 110.261 118.15 108.462C119.096 106.569 120.232 104.817 121.558 103.208C122.883 101.504 124.114 99.942 125.25 98.522C126.764 96.6287 128.137 94.9247 129.368 93.41C130.693 91.8007 131.971 90.286 133.202 88.866C134.527 87.446 135.9 86.0733 137.32 84.748C138.834 83.4227 140.633 82.0027 142.716 80.488C142.905 79.7307 143.142 78.8313 143.426 77.79C143.71 76.654 144.23 75.8967 144.988 75.518L145.272 75.234C144.893 75.1393 144.704 74.7133 144.704 73.956C145.366 71.684 146.029 69.0333 146.692 66.004C147.354 62.88 147.875 59.8033 148.254 56.774C148.632 53.65 148.727 50.9993 148.538 48.822C148.443 47.4967 148.206 46.3133 147.828 45.272C147.544 44.2307 146.644 43.71 145.13 43.71C143.331 43.71 141.248 44.278 138.882 45.414C136.61 46.55 134.432 47.9227 132.35 49.532C130.267 51.0467 128.563 52.372 127.238 53.508C125.155 55.3067 123.12 57.1527 121.132 59.046C119.238 60.9393 117.345 62.88 115.452 64.868C113.085 67.2347 110.908 69.7433 108.92 72.394C107.026 75.0447 106.08 78.074 106.08 81.482C106.08 82.8073 106.174 83.754 106.364 84.322C106.553 84.89 106.79 85.316 107.074 85.6C107.547 86.0733 107.878 86.4047 108.068 86.594C108.257 86.6887 108.494 87.1147 108.778 87.872H108.068L106.222 87.73C104.328 86.6887 102.908 85.2213 101.962 83.328C101.11 81.34 100.684 79.494 100.684 77.79C100.684 74.382 101.867 70.8793 104.234 67.282C106.6 63.6847 109.535 60.2293 113.038 56.916C116.635 53.6027 120.327 50.668 124.114 48.112C127.995 45.556 131.356 43.6153 134.196 42.29C135.142 41.8167 136.089 41.3907 137.036 41.012C137.982 40.5387 138.929 40.2073 139.876 40.018C140.254 39.8287 140.586 39.7813 140.87 39.876C141.248 39.876 141.627 39.8287 142.006 39.734C142.1 39.734 142.242 39.6867 142.432 39.592C142.621 39.4973 142.81 39.4027 143 39.308L143.994 39.024C145.698 39.024 147.496 39.3553 149.39 40.018C151.283 40.6807 152.94 41.6273 154.36 42.858C155.874 44.0887 156.774 45.6033 157.058 47.402C157.342 49.2007 157.484 51.1413 157.484 53.224C157.484 54.7387 157.389 56.3007 157.2 57.91C157.105 59.4247 156.821 60.9393 156.348 62.454C155.874 64.158 155.401 66.004 154.928 67.992C154.454 69.98 153.886 71.7787 153.224 73.388C152.94 73.7667 152.798 74.1453 152.798 74.524C154.691 73.388 156.963 72.2047 159.614 70.974C162.264 69.6487 164.962 68.56 167.708 67.708C170.548 66.7613 173.104 66.288 175.376 66.288C178.5 66.288 180.772 67.3767 182.192 69.554C183.612 71.7313 184.416 74.1453 184.606 76.796L185.032 81.482C185.126 82.334 185.174 83.186 185.174 84.038C185.268 84.89 185.316 85.742 185.316 86.594C185.316 90.3807 184.89 94.12 184.038 97.812C183.28 101.504 182.097 105.054 180.488 108.462C180.488 108.841 180.251 109.03 179.778 109.03C179.399 109.03 179.115 108.793 178.926 108.32C178.736 107.847 178.642 107.515 178.642 107.326C178.642 106.853 178.689 106.474 178.784 106.19C179.446 104.77 179.872 103.445 180.062 102.214C180.251 100.983 180.393 99.7527 180.488 98.522C180.582 97.1967 180.582 95.9187 180.488 94.688C180.488 93.4573 180.488 92.2267 180.488 90.996C180.488 89.3867 180.298 87.8247 179.92 86.31C179.636 84.7007 179.304 83.1387 178.926 81.624C178.642 80.1093 177.884 78.4527 176.654 76.654C175.518 74.7607 173.908 73.814 171.826 73.814C171.542 73.814 171.21 73.814 170.832 73.814C170.548 73.814 170.264 73.8613 169.98 73.956C167.613 74.524 165.578 75.092 163.874 75.66C162.264 76.228 160.75 76.8907 159.33 77.648C157.91 78.3107 156.442 79.068 154.928 79.92C153.508 80.772 151.804 81.8133 149.816 83.044C148.964 85.4107 148.017 87.73 146.976 90.002C145.934 92.1793 144.893 94.404 143.852 96.676C142.905 98.664 141.911 100.605 140.87 102.498C139.828 104.391 138.645 106.237 137.32 108.036C137.036 108.415 136.704 108.793 136.326 109.172C135.947 109.456 135.616 109.835 135.332 110.308C134.574 111.255 133.817 112.059 133.06 112.722C132.586 113.195 131.782 113.858 130.646 114.71C129.131 116.035 127.806 117.171 126.67 118.118C125.534 119.159 123.83 119.68 121.558 119.68ZM121.274 116.84C124.114 116.84 126.575 115.799 128.658 113.716C130.74 111.633 132.539 109.03 134.054 105.906C135.663 102.782 136.988 99.658 138.03 96.534C139.166 93.3153 140.112 90.6647 140.87 88.582C138.03 90.4753 135.947 92.0847 134.622 93.41C134.243 93.7887 133.817 94.262 133.344 94.83C132.965 95.3033 132.539 95.7767 132.066 96.25L128.942 100.368C128.184 101.409 127.048 102.782 125.534 104.486C124.114 106.19 122.788 107.989 121.558 109.882C120.422 111.681 119.901 113.29 119.996 114.71C120.09 114.899 120.232 115.278 120.422 115.846C120.706 116.509 120.99 116.84 121.274 116.84ZM223.95 114.994C222.246 114.994 220.4 114.663 218.412 114C216.518 113.337 214.862 112.343 213.442 111.018C212.116 109.693 211.359 108.083 211.17 106.19C211.17 105.717 211.17 105.243 211.17 104.77C211.264 104.297 211.264 103.871 211.17 103.492C211.17 103.208 210.886 102.924 210.318 102.64L209.892 102.214C209.513 102.025 209.134 101.788 208.756 101.504C208.377 101.125 208.188 100.699 208.188 100.226C208.472 100.131 208.708 100.084 208.898 100.084C209.371 100.084 209.797 100.131 210.176 100.226C210.649 100.321 211.075 100.368 211.454 100.368C211.359 100.368 211.406 100.179 211.596 99.8C211.596 99.6107 211.643 99.4213 211.738 99.232C211.832 98.948 211.927 98.7587 212.022 98.664C212.116 98.664 212.258 98.3327 212.448 97.67C212.637 96.9127 212.779 96.4867 212.874 96.392C214.199 92.3213 215.998 88.866 218.27 86.026C220.636 83.0913 223.855 80.914 227.926 79.494C228.304 79.3993 228.636 79.352 228.92 79.352C229.298 79.2573 229.677 79.21 230.056 79.21C230.813 79.21 231.807 79.494 233.038 80.062C234.268 80.5353 235.357 81.198 236.304 82.05C237.345 82.8073 237.913 83.612 238.008 84.464C238.008 84.8427 238.008 85.174 238.008 85.458C238.102 85.742 238.15 86.0733 238.15 86.452C238.15 87.02 238.008 87.6827 237.724 88.44L236.872 88.866C236.682 89.2447 236.493 89.5287 236.304 89.718L235.452 90.712C234.694 91.4693 234.41 91.99 234.6 92.274L234.316 92.416C234.316 92.416 234.316 92.4633 234.316 92.558C234.316 92.558 234.268 92.558 234.174 92.558L234.316 92.416L234.174 92.558V92.7L233.464 92.842C233.085 93.126 232.754 93.4573 232.47 93.836C232.186 94.12 231.902 94.4513 231.618 94.83C230.198 96.3447 228.352 97.67 226.08 98.806C223.808 99.8473 221.725 100.794 219.832 101.646C219.548 101.741 219.122 101.883 218.554 102.072C218.08 102.167 217.749 102.356 217.56 102.64C217.181 103.113 216.944 103.729 216.85 104.486C216.755 105.243 216.708 105.953 216.708 106.616C216.897 107.752 217.181 108.841 217.56 109.882C218.033 110.923 218.98 111.444 220.4 111.444H221.678C222.151 111.444 222.624 111.397 223.098 111.302C223.666 111.207 224.234 111.113 224.802 111.018L225.796 110.45L225.938 110.592C226.506 110.403 227.5 109.977 228.92 109.314C230.34 108.651 231.712 107.989 233.038 107.326C234.363 106.569 235.168 106.048 235.452 105.764L235.594 105.622L235.736 105.338L236.162 104.912C237.866 103.681 239.522 102.64 241.132 101.788C242.741 100.841 244.303 99.6107 245.818 98.096L246.102 98.38H246.528C246.433 99.0427 246.196 99.5633 245.818 99.942C245.439 100.226 245.013 100.605 244.54 101.078L244.114 101.788C242.978 103.587 241.226 105.385 238.86 107.184C236.588 108.983 234.505 110.497 232.612 111.728C231.949 112.107 231.286 112.58 230.624 113.148C229.961 113.621 229.204 114 228.352 114.284C226.742 114.757 225.275 114.994 223.95 114.994ZM219.406 97.386C219.974 97.386 220.352 97.386 220.542 97.386C220.826 97.2913 221.204 97.1967 221.678 97.102C223.571 96.0607 225.322 94.83 226.932 93.41C228.636 91.99 230.245 90.57 231.76 89.15C231.949 88.4873 232.422 87.9193 233.18 87.446L233.748 87.02C233.937 86.8307 234.079 86.6413 234.174 86.452C234.363 86.2627 234.458 86.0733 234.458 85.884C234.552 85.7893 234.505 85.458 234.316 84.89L234.174 84.18V83.896C233.89 83.8013 233.511 83.754 233.038 83.754C232.375 84.038 231.712 84.464 231.05 85.032C230.387 85.6 229.677 85.9313 228.92 86.026C228.541 86.594 227.736 87.3513 226.506 88.298C225.843 88.866 225.18 89.434 224.518 90.002C223.95 90.4753 223.571 90.8067 223.382 90.996C222.719 91.6587 221.914 92.7 220.968 94.12C220.021 95.4453 219.5 96.534 219.406 97.386ZM261.61 116.698C258.864 116.698 256.734 116.083 255.22 114.852C253.8 113.716 252.806 112.249 252.238 110.45C251.67 108.557 251.291 106.616 251.102 104.628C251.007 103.587 250.581 102.877 249.824 102.498C249.54 102.309 249.208 102.167 248.83 102.072C248.546 101.883 248.404 101.599 248.404 101.22C248.782 100.463 249.35 99.8947 250.108 99.516C250.865 99.0427 251.338 98.7587 251.528 98.664C251.528 98.5693 251.528 98.4747 251.528 98.38C251.622 98.1907 251.67 98.0013 251.67 97.812L252.38 95.682L253.374 91.99C253.658 90.9487 253.894 89.86 254.084 88.724C254.368 87.4933 254.699 86.2627 255.078 85.032C255.456 83.7067 255.882 82.334 256.356 80.914C256.829 79.494 257.397 77.9793 258.06 76.37C258.817 76.1807 259.196 75.9913 259.196 75.802C259.29 75.518 259.243 75.092 259.054 74.524C259.054 74.4293 259.006 74.3347 258.912 74.24C258.912 74.1453 258.912 74.0507 258.912 73.956C258.912 73.388 259.101 72.7727 259.48 72.11C259.953 71.4473 260.379 70.7847 260.758 70.122C261.231 69.3647 261.704 68.702 262.178 68.134C262.651 67.4713 262.935 67.0927 263.03 66.998C265.491 63.6847 268.047 60.5607 270.698 57.626C273.443 54.6913 276.709 52.1827 280.496 50.1C280.969 49.9107 281.348 49.7213 281.632 49.532C282.01 49.248 282.436 49.0587 282.91 48.964L282.768 48.822C282.957 48.822 283.146 48.822 283.336 48.822C283.525 48.7273 283.714 48.68 283.904 48.68C284.661 48.68 285.892 48.964 287.596 49.532C289.3 50.1 290.862 50.81 292.282 51.662C293.796 52.514 294.554 53.4607 294.554 54.502C294.554 55.5433 293.986 57.1053 292.85 59.188C291.714 61.176 290.294 63.4007 288.59 65.862C286.886 68.2287 285.087 70.5953 283.194 72.962C281.395 75.3287 279.691 77.4113 278.082 79.21C276.567 81.0087 275.431 82.2867 274.674 83.044C274.295 83.4227 273.916 83.754 273.538 84.038C273.159 84.322 272.78 84.6533 272.402 85.032C271.644 85.7893 270.887 86.594 270.13 87.446C269.467 88.298 268.71 89.1027 267.858 89.86C266.627 90.996 265.065 92.274 263.172 93.694C261.373 95.0193 259.858 96.25 258.628 97.386C258.249 97.7647 257.965 98.096 257.776 98.38C257.681 98.664 257.492 98.9953 257.208 99.374C256.829 99.8473 256.545 100.841 256.356 102.356C256.261 103.776 256.261 104.865 256.356 105.622C256.45 106.474 256.687 107.563 257.066 108.888C257.444 110.119 258.012 111.255 258.77 112.296C259.527 113.337 260.474 113.858 261.61 113.858C262.178 113.858 262.651 113.763 263.03 113.574C263.503 113.29 263.976 113.053 264.45 112.864C267.195 111.349 269.514 109.787 271.408 108.178C273.396 106.474 275.431 104.486 277.514 102.214C278.271 101.457 278.981 100.699 279.644 99.942C280.401 99.09 281.158 98.2853 281.916 97.528C282.389 97.1493 282.862 96.7233 283.336 96.25C283.904 95.682 284.519 95.4453 285.182 95.54C285.087 96.676 284.708 97.4807 284.046 97.954C283.478 98.3327 282.957 98.9007 282.484 99.658C282.01 100.51 281.537 101.315 281.064 102.072C280.59 102.829 280.164 103.681 279.786 104.628C279.596 105.007 279.312 105.385 278.934 105.764C278.555 106.143 278.224 106.521 277.94 106.9C276.425 108.699 274.816 110.355 273.112 111.87C271.408 113.29 269.42 114.426 267.148 115.278C266.201 115.657 265.302 115.988 264.45 116.272C263.598 116.556 262.651 116.698 261.61 116.698ZM256.498 94.546H256.64C262.32 89.3393 267.81 83.9433 273.112 78.358C278.413 72.7727 282.957 66.7613 286.744 60.324C286.933 60.04 287.312 59.33 287.88 58.194C288.448 57.058 288.921 55.922 289.3 54.786C289.773 53.65 289.773 52.94 289.3 52.656C288.258 53.0347 287.264 53.5553 286.318 54.218C285.466 54.8807 284.614 55.5433 283.762 56.206C283.478 56.3953 283.146 56.5847 282.768 56.774C282.389 56.9633 282.105 57.2 281.916 57.484C281.158 58.2413 280.401 58.9987 279.644 59.756C278.886 60.5133 278.129 61.2707 277.372 62.028C276.33 63.0693 275.336 64.2053 274.39 65.436C273.538 66.6667 272.638 67.8973 271.692 69.128C269.514 71.968 267.716 74.4767 266.296 76.654C264.876 78.7367 263.266 81.2927 261.468 84.322C261.184 84.89 260.663 85.884 259.906 87.304C259.148 88.724 258.438 90.144 257.776 91.564C257.113 92.8893 256.687 93.8833 256.498 94.546ZM297.233 115.988C295.434 115.988 293.399 115.515 291.127 114.568C288.855 113.716 287.198 112.533 286.157 111.018C285.778 110.45 285.542 109.882 285.447 109.314C285.352 108.746 285.258 108.225 285.163 107.752C285.068 105.859 285.116 104.391 285.305 103.35C285.494 102.214 285.826 101.125 286.299 100.084C286.772 99.0427 287.293 97.7647 287.861 96.25C287.956 95.966 288.334 95.4927 288.997 94.83C289.66 94.1673 290.322 93.5047 290.985 92.842C291.742 92.0847 292.216 91.564 292.405 91.28C292.878 90.712 293.257 90.1913 293.541 89.718C293.92 89.2447 294.488 88.9133 295.245 88.724C295.434 88.6293 295.576 88.582 295.671 88.582C295.86 88.582 296.002 88.5347 296.097 88.44C296.476 87.588 296.902 86.9253 297.375 86.452C297.943 85.884 298.558 85.3633 299.221 84.89C299.789 84.4167 300.925 83.8013 302.629 83.044C304.428 82.2867 305.658 81.908 306.321 81.908C306.794 81.908 307.22 82.0027 307.599 82.192C308.072 82.3813 308.546 82.476 309.019 82.476L309.445 82.334C309.54 82.7127 309.918 83.044 310.581 83.328C311.244 83.7067 312.143 84.18 313.279 84.748C314.51 85.316 315.172 85.9787 315.267 86.736C315.267 87.02 315.078 87.588 314.699 88.44C314.415 89.292 313.989 90.0967 313.421 90.854C312.948 91.6113 312.474 92.0373 312.001 92.132C312.001 91.6587 312.001 91.28 312.001 90.996C312.096 90.712 312.19 90.3807 312.285 90.002C312.285 89.718 312.285 89.4813 312.285 89.292C312.38 89.008 312.427 88.724 312.427 88.44C312.332 87.9667 312.143 87.5407 311.859 87.162C311.575 86.7833 311.196 86.594 310.723 86.594C309.492 86.594 308.072 87.162 306.463 88.298C304.854 89.434 303.339 90.712 301.919 92.132C300.499 93.4573 299.41 94.5933 298.653 95.54C297.233 97.0547 296.002 98.5693 294.961 100.084C294.014 101.599 293.304 103.397 292.831 105.48C292.736 106.143 292.642 106.805 292.547 107.468C292.547 108.131 292.547 108.841 292.547 109.598C292.736 109.882 292.831 110.213 292.831 110.592C292.926 110.971 293.068 111.302 293.257 111.586C293.446 111.681 293.541 111.823 293.541 112.012C293.636 112.201 293.73 112.343 293.825 112.438L293.967 112.722V112.864H295.103C296.05 112.864 296.854 112.769 297.517 112.58C298.18 112.391 298.842 112.249 299.505 112.154C299.978 111.965 300.452 111.823 300.925 111.728C301.493 111.539 302.061 111.444 302.629 111.444C303.197 110.971 303.812 110.592 304.475 110.308C305.138 109.929 305.8 109.598 306.463 109.314V109.03C307.22 109.125 307.93 108.888 308.593 108.32C309.35 107.752 310.013 107.326 310.581 107.042C312.758 105.811 314.841 104.581 316.829 103.35C318.817 102.119 320.71 100.747 322.509 99.232C322.793 99.0427 323.456 98.522 324.497 97.67C325.538 96.818 326.154 96.392 326.343 96.392C326.343 96.392 326.438 96.2973 326.627 96.108C327.384 96.5813 327.763 97.0547 327.763 97.528C327.763 98.096 327.479 98.664 326.911 99.232C326.343 99.8 325.822 100.226 325.349 100.51C324.97 100.699 324.592 100.936 324.213 101.22C323.929 101.409 323.645 101.599 323.361 101.788C322.982 101.977 322.604 102.214 322.225 102.498C321.941 102.687 321.704 102.924 321.515 103.208C321.326 103.587 321.089 103.918 320.805 104.202C320.616 104.486 320.284 104.675 319.811 104.77L319.669 105.054C319.006 105.433 318.344 105.859 317.681 106.332C317.018 106.711 316.356 107.137 315.693 107.61C315.314 107.894 315.03 108.036 314.841 108.036C313.8 108.509 312.711 109.172 311.575 110.024C310.723 110.592 309.966 111.207 309.303 111.87C308.64 112.438 307.788 112.769 306.747 112.864C306.558 113.527 306.084 113.905 305.327 114C304.664 114.095 304.096 114.237 303.623 114.426C301.635 115.467 299.505 115.988 297.233 115.988ZM339.237 117.55C338.291 117.55 337.486 117.408 336.823 117.124C336.255 116.935 335.735 116.745 335.261 116.556C334.977 116.367 334.646 116.13 334.267 115.846C333.983 115.562 333.652 115.42 333.273 115.42C333.179 115.231 332.989 114.994 332.705 114.71L332.137 114.284C331.285 113.621 330.717 112.817 330.433 111.87C330.149 110.923 330.007 109.835 330.007 108.604C330.007 106.995 330.386 105.527 331.143 104.202C331.901 102.877 332.516 101.457 332.989 99.942C333.179 99.4687 333.273 98.9953 333.273 98.522C333.273 98.0487 333.321 97.5753 333.415 97.102C333.605 96.4393 333.889 95.824 334.267 95.256C334.646 94.688 335.025 94.12 335.403 93.552C337.581 89.7653 340.184 86.736 343.213 84.464C346.243 82.0973 349.887 80.1093 354.147 78.5C354.621 78.3107 355.425 78.1213 356.561 77.932C357.792 77.7427 358.644 77.648 359.117 77.648C359.875 77.648 360.585 77.79 361.247 78.074C361.91 78.2633 362.573 78.4527 363.235 78.642C363.425 78.7367 363.614 78.8313 363.803 78.926C364.087 78.926 364.419 78.926 364.797 78.926L364.513 79.352C365.365 79.7307 366.028 80.2513 366.501 80.914C367.069 81.5767 367.685 82.192 368.347 82.76L369.625 83.896C370.004 84.2747 370.241 84.7953 370.335 85.458C370.525 86.026 370.619 86.4993 370.619 86.878C370.809 88.2033 370.714 89.4813 370.335 90.712C370.051 91.848 369.673 92.9367 369.199 93.978C368.631 94.9247 368.016 95.9187 367.353 96.96C366.691 97.9067 365.981 98.8533 365.223 99.8C364.561 100.747 363.898 101.693 363.235 102.64C362.573 103.587 361.815 104.486 360.963 105.338C360.774 105.527 360.301 106.001 359.543 106.758C358.786 107.421 358.029 108.131 357.271 108.888C356.609 109.645 356.23 110.119 356.135 110.308C355.283 110.592 354.573 111.018 354.005 111.586L353.153 112.438C351.449 114.142 349.272 115.42 346.621 116.272C343.971 117.124 341.509 117.55 339.237 117.55ZM339.947 114.852C340.042 114.757 340.184 114.71 340.373 114.71L341.651 114.284C342.125 114.095 342.551 113.953 342.929 113.858C343.403 113.763 343.687 113.669 343.781 113.574C344.16 113.385 344.917 112.911 346.053 112.154C347.284 111.397 348.42 110.592 349.461 109.74C350.503 108.888 350.976 108.273 350.881 107.894C351.544 107.61 352.349 106.853 353.295 105.622C354.337 104.391 355.283 103.066 356.135 101.646C357.082 100.226 357.697 99.232 357.981 98.664C358.171 98.1907 358.36 97.7647 358.549 97.386C358.739 97.0073 359.023 96.6287 359.401 96.25C359.401 95.7767 359.496 95.3507 359.685 94.972C359.969 94.5933 360.111 94.262 360.111 93.978C360.301 93.7887 360.395 93.5047 360.395 93.126C360.49 92.6527 360.585 92.3213 360.679 92.132C360.869 91.3747 361.011 90.9013 361.105 90.712L360.963 90.57C361.058 90.3807 361.105 90.1913 361.105 90.002C361.2 89.718 361.295 89.5287 361.389 89.434V89.008C361.389 88.5347 361.437 88.1087 361.531 87.73C361.626 87.2567 361.626 86.7833 361.531 86.31C361.721 85.9313 361.815 85.6 361.815 85.316C361.815 85.032 361.768 84.748 361.673 84.464C361.673 84.18 361.626 83.896 361.531 83.612L361.673 83.47C361.579 82.618 361.295 81.908 360.821 81.34C360.348 80.772 359.733 80.488 358.975 80.488C356.609 80.488 354.526 81.1033 352.727 82.334C350.929 83.5647 349.177 84.9373 347.473 86.452C346.811 86.9253 346.195 87.3987 345.627 87.872C345.154 88.3453 344.681 88.9133 344.207 89.576C344.207 89.6707 344.16 89.7653 344.065 89.86C344.255 89.6707 344.539 89.5287 344.917 89.434C345.769 88.7713 346.858 88.44 348.183 88.44C348.657 88.44 349.603 88.866 351.023 89.718C352.443 90.57 353.153 91.3747 353.153 92.132V92.842C352.491 92.558 352.112 92.3687 352.017 92.274L351.449 91.99C351.071 91.8007 350.645 91.706 350.171 91.706C348.657 91.706 347.047 92.416 345.343 93.836C343.734 95.256 342.409 96.6287 341.367 97.954C340.705 98.7113 340.089 99.4687 339.521 100.226C338.953 100.889 338.717 101.835 338.811 103.066C339.285 103.35 339.616 103.871 339.805 104.628C339.521 104.723 339.237 104.77 338.953 104.77C338.48 104.77 338.007 104.533 337.533 104.06C337.249 104.439 337.013 104.959 336.823 105.622C336.634 106.285 336.445 106.853 336.255 107.326L335.971 107.752C335.971 108.131 335.924 108.509 335.829 108.888C335.829 109.267 335.877 109.645 335.971 110.024C336.066 111.444 336.397 112.627 336.965 113.574C337.533 114.426 338.527 114.852 339.947 114.852ZM428.409 121.952C427.841 121.952 427.32 121.905 426.847 121.81C426.373 121.715 425.9 121.621 425.427 121.526L425.001 121.81C423.202 120.485 421.735 119.159 420.599 117.834C419.463 116.603 418.8 115.041 418.611 113.148C418.516 111.823 418.374 110.545 418.185 109.314C417.995 107.989 417.901 106.663 417.901 105.338C417.901 104.107 418.043 102.877 418.327 101.646C418.421 101.173 418.469 100.652 418.469 100.084C418.469 99.516 418.469 98.9953 418.469 98.522C418.469 97.954 418.516 97.2913 418.611 96.534C418.705 95.7767 418.895 94.8773 419.179 93.836C419.273 93.6467 419.415 93.2207 419.605 92.558C419.794 91.8007 419.841 91.3273 419.747 91.138V90.996C419.179 91.7533 418.563 92.6053 417.901 93.552C417.333 94.404 416.859 95.256 416.481 96.108C416.197 96.676 415.487 97.8593 414.351 99.658C413.309 101.457 412.221 103.255 411.085 105.054C409.949 106.758 409.144 107.799 408.671 108.178C407.724 108.841 406.73 109.172 405.689 109.172C405.026 109.172 404.127 108.935 402.991 108.462C401.855 107.989 400.861 107.421 400.009 106.758C399.157 106.001 398.731 105.196 398.731 104.344C398.731 103.776 399.015 102.735 399.583 101.22C400.245 99.7053 400.624 98.664 400.719 98.096C401.287 96.676 401.76 95.3033 402.139 93.978C402.612 92.558 402.801 91.422 402.707 90.57C402.707 90.1913 402.659 90.002 402.565 90.002C401.997 90.002 401.192 90.4753 400.151 91.422C399.204 92.274 398.494 92.984 398.021 93.552C398.021 93.6467 397.973 93.7887 397.879 93.978C397.784 94.0727 397.689 94.2147 397.595 94.404L397.169 94.972C397.169 95.0667 397.121 95.1613 397.027 95.256C396.648 95.6347 395.891 96.392 394.755 97.528C393.619 98.664 392.956 99.4687 392.767 99.942C392.577 100.321 392.483 100.51 392.483 100.51C392.293 100.794 391.867 101.362 391.205 102.214C390.542 103.066 389.832 103.918 389.075 104.77C388.317 105.622 387.749 106.19 387.371 106.474C387.087 107.137 386.708 107.752 386.235 108.32C385.761 108.793 385.288 109.314 384.815 109.882C384.247 110.45 383.584 111.539 382.827 113.148C382.164 114.757 381.691 115.941 381.407 116.698C381.312 117.077 380.886 117.361 380.129 117.55C379.371 117.739 378.851 117.834 378.567 117.834C378.188 117.834 377.62 117.597 376.863 117.124C376.2 116.745 375.821 116.319 375.727 115.846C375.727 115.562 375.916 114.805 376.295 113.574C376.673 112.249 377.099 110.781 377.573 109.172C378.141 107.468 378.661 105.953 379.135 104.628C379.703 103.208 380.081 102.356 380.271 102.072C380.271 101.788 380.413 101.504 380.697 101.22C380.791 100.652 380.981 99.7527 381.265 98.522C381.643 97.2913 382.022 96.108 382.401 94.972C382.874 93.7413 383.158 92.984 383.253 92.7C384.105 91.0907 385.004 89.1973 385.951 87.02C386.897 84.8427 387.702 82.6653 388.365 80.488C389.027 78.216 389.311 76.2753 389.217 74.666C388.649 74.666 388.081 74.7607 387.513 74.95C387.039 75.0447 386.519 75.092 385.951 75.092C384.72 74.7133 384.436 74.1927 385.099 73.53C385.477 73.1513 386.235 72.962 387.371 72.962C388.128 73.1513 389.264 73.3407 390.779 73.53C392.293 73.6247 393.713 73.9087 395.039 74.382C396.459 74.7607 397.216 75.518 397.311 76.654C397.405 77.1273 397.027 78.3107 396.175 80.204C395.417 82.0027 394.518 83.9433 393.477 86.026C393.003 87.0673 392.53 88.1087 392.057 89.15C391.583 90.1913 391.11 91.2327 390.637 92.274C390.258 93.2207 389.879 94.0727 389.501 94.83C389.217 95.5873 388.98 96.2027 388.791 96.676C388.601 97.1493 388.317 97.5753 387.939 97.954C387.655 98.238 387.56 98.7113 387.655 99.374C387.276 99.658 387.134 99.9893 387.229 100.368C387.702 99.7053 388.365 98.8533 389.217 97.812C390.163 96.676 391.063 95.6347 391.915 94.688C392.767 93.6467 393.335 92.984 393.619 92.7H393.903C395.417 91.0907 396.932 89.5287 398.447 88.014C399.961 86.4993 401.618 85.2213 403.417 84.18L403.701 83.896C403.795 83.896 403.89 83.754 403.985 83.47H404.837L405.263 83.328C405.452 83.328 405.594 83.328 405.689 83.328C405.783 83.2333 405.925 83.186 406.115 83.186C407.345 83.186 408.529 83.6593 409.665 84.606C410.895 85.5527 411.558 86.6413 411.653 87.872C411.842 89.3867 411.653 90.854 411.085 92.274C410.517 93.5993 409.949 94.9247 409.381 96.25C409.002 97.0073 408.671 97.812 408.387 98.664C408.103 99.4213 407.819 100.179 407.535 100.936C407.44 101.315 407.203 101.93 406.825 102.782C406.446 103.539 406.257 104.107 406.257 104.486C406.73 104.297 407.014 104.107 407.109 103.918C407.298 103.634 407.487 103.303 407.677 102.924C407.771 102.735 407.866 102.545 407.961 102.356C408.055 102.167 408.15 102.025 408.245 101.93C409.191 100.699 410.091 99.516 410.943 98.38C411.889 97.1493 412.836 95.9187 413.783 94.688C414.067 94.2147 414.351 93.836 414.635 93.552C415.013 93.268 415.345 92.9367 415.629 92.558C416.197 91.8007 416.765 90.9487 417.333 90.002C417.901 88.9607 418.611 88.2507 419.463 87.872C419.841 87.6827 420.22 87.588 420.599 87.588C421.072 87.4933 421.498 87.446 421.877 87.446C422.445 87.446 423.249 87.5407 424.291 87.73C425.332 87.8247 426.326 88.0613 427.273 88.44C428.219 88.724 428.693 89.1973 428.693 89.86C428.882 91.3747 428.645 92.7473 427.983 93.978C427.32 95.2087 426.847 96.4867 426.563 97.812C426.468 98.38 426.231 99.6107 425.853 101.504C425.569 103.397 425.332 105.291 425.143 107.184C425.048 109.077 425.048 110.308 425.143 110.876C425.237 110.971 425.285 111.065 425.285 111.16C425.379 111.16 425.474 111.255 425.569 111.444C425.474 111.728 425.427 112.249 425.427 113.006C425.332 113.29 425.237 113.621 425.143 114C425.048 114.284 425.001 114.615 425.001 114.994C425.19 115.846 425.332 116.84 425.427 117.976C425.521 119.207 426.137 119.917 427.273 120.106V119.822L427.699 120.106C428.551 119.633 429.497 118.733 430.539 117.408C431.675 116.177 432.195 115.231 432.101 114.568H432.669C432.858 114.568 432.953 114.663 432.953 114.852V115.136L432.385 119.964C431.343 121.289 430.018 121.952 428.409 121.952ZM451.178 114.994C449.474 114.994 447.628 114.663 445.64 114C443.746 113.337 442.09 112.343 440.67 111.018C439.344 109.693 438.587 108.083 438.398 106.19C438.398 105.717 438.398 105.243 438.398 104.77C438.492 104.297 438.492 103.871 438.398 103.492C438.398 103.208 438.114 102.924 437.546 102.64L437.12 102.214C436.741 102.025 436.362 101.788 435.984 101.504C435.605 101.125 435.416 100.699 435.416 100.226C435.7 100.131 435.936 100.084 436.126 100.084C436.599 100.084 437.025 100.131 437.404 100.226C437.877 100.321 438.303 100.368 438.682 100.368C438.587 100.368 438.634 100.179 438.824 99.8C438.824 99.6107 438.871 99.4213 438.966 99.232C439.06 98.948 439.155 98.7587 439.25 98.664C439.344 98.664 439.486 98.3327 439.676 97.67C439.865 96.9127 440.007 96.4867 440.102 96.392C441.427 92.3213 443.226 88.866 445.498 86.026C447.864 83.0913 451.083 80.914 455.154 79.494C455.532 79.3993 455.864 79.352 456.148 79.352C456.526 79.2573 456.905 79.21 457.284 79.21C458.041 79.21 459.035 79.494 460.266 80.062C461.496 80.5353 462.585 81.198 463.532 82.05C464.573 82.8073 465.141 83.612 465.236 84.464C465.236 84.8427 465.236 85.174 465.236 85.458C465.33 85.742 465.378 86.0733 465.378 86.452C465.378 87.02 465.236 87.6827 464.952 88.44L464.1 88.866C463.91 89.2447 463.721 89.5287 463.532 89.718L462.68 90.712C461.922 91.4693 461.638 91.99 461.828 92.274L461.544 92.416C461.544 92.416 461.544 92.4633 461.544 92.558C461.544 92.558 461.496 92.558 461.402 92.558L461.544 92.416L461.402 92.558V92.7L460.692 92.842C460.313 93.126 459.982 93.4573 459.698 93.836C459.414 94.12 459.13 94.4513 458.846 94.83C457.426 96.3447 455.58 97.67 453.308 98.806C451.036 99.8473 448.953 100.794 447.06 101.646C446.776 101.741 446.35 101.883 445.782 102.072C445.308 102.167 444.977 102.356 444.788 102.64C444.409 103.113 444.172 103.729 444.078 104.486C443.983 105.243 443.936 105.953 443.936 106.616C444.125 107.752 444.409 108.841 444.788 109.882C445.261 110.923 446.208 111.444 447.628 111.444H448.906C449.379 111.444 449.852 111.397 450.326 111.302C450.894 111.207 451.462 111.113 452.03 111.018L453.024 110.45L453.166 110.592C453.734 110.403 454.728 109.977 456.148 109.314C457.568 108.651 458.94 107.989 460.266 107.326C461.591 106.569 462.396 106.048 462.68 105.764L462.822 105.622L462.964 105.338L463.39 104.912C465.094 103.681 466.75 102.64 468.36 101.788C469.969 100.841 471.531 99.6107 473.046 98.096L473.33 98.38H473.756C473.661 99.0427 473.424 99.5633 473.046 99.942C472.667 100.226 472.241 100.605 471.768 101.078L471.342 101.788C470.206 103.587 468.454 105.385 466.088 107.184C463.816 108.983 461.733 110.497 459.84 111.728C459.177 112.107 458.514 112.58 457.852 113.148C457.189 113.621 456.432 114 455.58 114.284C453.97 114.757 452.503 114.994 451.178 114.994ZM446.634 97.386C447.202 97.386 447.58 97.386 447.77 97.386C448.054 97.2913 448.432 97.1967 448.906 97.102C450.799 96.0607 452.55 94.83 454.16 93.41C455.864 91.99 457.473 90.57 458.988 89.15C459.177 88.4873 459.65 87.9193 460.408 87.446L460.976 87.02C461.165 86.8307 461.307 86.6413 461.402 86.452C461.591 86.2627 461.686 86.0733 461.686 85.884C461.78 85.7893 461.733 85.458 461.544 84.89L461.402 84.18V83.896C461.118 83.8013 460.739 83.754 460.266 83.754C459.603 84.038 458.94 84.464 458.278 85.032C457.615 85.6 456.905 85.9313 456.148 86.026C455.769 86.594 454.964 87.3513 453.734 88.298C453.071 88.866 452.408 89.434 451.746 90.002C451.178 90.4753 450.799 90.8067 450.61 90.996C449.947 91.6587 449.142 92.7 448.196 94.12C447.249 95.4453 446.728 96.534 446.634 97.386ZM483.3 102.498C482.069 102.025 481.264 101.504 480.886 100.936C480.602 100.368 480.554 99.3267 480.744 97.812C481.217 94.8773 482.258 91.6587 483.868 88.156C485.477 84.5587 487.276 81.0087 489.264 77.506C491.252 74.0033 493.098 70.8793 494.802 68.134C494.991 67.7553 495.086 67.4713 495.086 67.282V66.856C495.086 65.9093 495.417 64.7733 496.08 63.448C496.837 62.028 497.642 60.6553 498.494 59.33C499.44 58.0047 500.15 57.058 500.624 56.49C501.097 55.638 501.57 55.07 502.044 54.786C502.612 54.4073 503.227 53.934 503.89 53.366C504.079 53.366 504.363 53.366 504.742 53.366C505.12 53.2713 505.499 53.224 505.878 53.224C507.392 53.224 509.002 53.4133 510.706 53.792C512.504 54.076 513.309 54.644 513.12 55.496C513.12 55.5907 512.836 55.9693 512.268 56.632C511.794 57.2947 511.179 58.0047 510.422 58.762L508.434 60.892C508.15 61.2707 507.913 61.5547 507.724 61.744C507.534 61.9333 507.345 62.1227 507.156 62.312C505.546 64.4893 503.606 67.0927 501.334 70.122C499.156 73.1513 496.932 76.37 494.66 79.778C492.482 83.0913 490.542 86.4047 488.838 89.718C487.134 92.9367 485.998 95.8713 485.43 98.522C486.85 98.0487 487.844 97.528 488.412 96.96C489.074 96.2973 489.879 95.4927 490.826 94.546L491.394 94.404C491.867 94.3093 492.009 94.546 491.82 95.114L491.536 95.682C491.252 96.25 490.731 97.0547 489.974 98.096C489.216 99.1373 488.601 99.8947 488.128 100.368C487.37 101.315 486.518 101.93 485.572 102.214C485.193 102.309 484.814 102.451 484.436 102.64C484.152 102.735 483.773 102.687 483.3 102.498ZM481.738 117.124C480.791 117.124 479.655 117.029 478.33 116.84C477.099 116.651 476.389 115.846 476.2 114.426C476.2 114.237 476.531 113.763 477.194 113.006C477.951 112.249 478.708 111.491 479.466 110.734C480.318 109.977 480.838 109.503 481.028 109.314C481.312 109.125 481.974 108.604 483.016 107.752C484.152 106.9 484.909 106.711 485.288 107.184C485.477 107.563 485.572 108.273 485.572 109.314V111.302C485.572 111.397 485.43 111.539 485.146 111.728C485.051 111.823 484.862 111.965 484.578 112.154C484.294 112.249 484.104 112.343 484.01 112.438H484.152V112.58C484.341 112.675 484.53 112.864 484.72 113.148C484.909 113.337 484.909 113.574 484.72 113.858C484.341 114.521 483.868 115.231 483.3 115.988C482.826 116.745 482.306 117.124 481.738 117.124Z" fill="white"/>
</svg>
