<svg width="30" height="31" viewBox="0 0 30 31" fill="none" xmlns="http://www.w3.org/2000/svg">
<rect y="0.5" width="30" height="30" rx="15" fill="white"/>
<g clip-path="url(#clip0_86_273)">
<path d="M17.0201 17.5202C17.0201 17.5202 17.1596 17.3807 17.4386 17.1017C17.7177 16.8226 17.8572 16.2888 17.8572 15.5001C17.8572 14.7114 17.5781 14.0381 17.0201 13.48C16.4621 12.922 15.7887 12.643 15 12.643C14.2113 12.643 13.538 12.922 12.9799 13.48C12.4219 14.0381 12.1429 14.7114 12.1429 15.5001C12.1429 16.2888 12.4219 16.9622 12.9799 17.5202C13.538 18.0782 14.2113 18.3572 15 18.3572C15.7887 18.3572 16.4621 18.0782 17.0201 17.5202ZM18.1139 12.3863C18.1139 12.3863 18.3278 12.6002 18.7556 13.028C19.1834 13.4558 19.3973 14.2799 19.3973 15.5001C19.3973 16.7203 18.9695 17.7583 18.1139 18.6139C17.2582 19.4696 16.2203 19.8974 15 19.8974C13.7798 19.8974 12.7418 19.4696 11.8862 18.6139C11.0305 17.7583 10.6027 16.7203 10.6027 15.5001C10.6027 14.2799 11.0305 13.2419 11.8862 12.3863C12.7418 11.5306 13.7798 11.1028 15 11.1028C16.2203 11.1028 17.2582 11.5306 18.1139 12.3863ZM20.3014 10.1988C20.3014 10.1988 20.3516 10.249 20.452 10.3494C20.5525 10.4499 20.6027 10.6415 20.6027 10.9242C20.6027 11.207 20.5022 11.4488 20.3014 11.6497C20.1005 11.8506 19.8586 11.951 19.5759 11.951C19.2932 11.951 19.0514 11.8506 18.8505 11.6497C18.6496 11.4488 18.5491 11.207 18.5491 10.9242C18.5491 10.6415 18.6496 10.3997 18.8505 10.1988C19.0514 9.99787 19.2932 9.89743 19.5759 9.89743C19.8586 9.89743 20.1005 9.99787 20.3014 10.1988ZM15.8538 8.46327C15.8538 8.46327 15.7245 8.4642 15.466 8.46607C15.2074 8.46793 15.0521 8.46886 15 8.46886C14.9479 8.46886 14.6633 8.467 14.1462 8.46327C13.6291 8.45955 13.2366 8.45955 12.9688 8.46327C12.7009 8.467 12.3419 8.47816 11.8918 8.49676C11.4416 8.51536 11.0584 8.55256 10.7422 8.60836C10.426 8.66417 10.16 8.73299 9.94421 8.81484C9.57219 8.96365 9.24481 9.17942 8.96207 9.46216C8.67933 9.7449 8.46356 10.0723 8.31475 10.4443C8.2329 10.6601 8.16408 10.9261 8.10828 11.2423C8.05247 11.5585 8.01527 11.9417 7.99667 12.3918C7.97807 12.842 7.96691 13.201 7.96319 13.4689C7.95947 13.7367 7.95947 14.1292 7.96319 14.6463C7.96691 15.1634 7.96877 15.448 7.96877 15.5001C7.96877 15.5522 7.96691 15.8368 7.96319 16.3539C7.95947 16.871 7.95947 17.2635 7.96319 17.5314C7.96691 17.7992 7.97807 18.1582 7.99667 18.6084C8.01527 19.0585 8.05247 19.4417 8.10828 19.7579C8.16408 20.0741 8.2329 20.3401 8.31475 20.5559C8.46356 20.9279 8.67933 21.2553 8.96207 21.5381C9.24481 21.8208 9.57219 22.0366 9.94421 22.1854C10.16 22.2672 10.426 22.336 10.7422 22.3918C11.0584 22.4476 11.4416 22.4849 11.8918 22.5035C12.3419 22.5221 12.7009 22.5332 12.9688 22.5369C13.2366 22.5407 13.6291 22.5407 14.1462 22.5369C14.6633 22.5332 14.9479 22.5314 15 22.5314C15.0521 22.5314 15.3367 22.5332 15.8538 22.5369C16.3709 22.5407 16.7634 22.5407 17.0313 22.5369C17.2991 22.5332 17.6581 22.5221 18.1083 22.5035C18.5584 22.4849 18.9416 22.4476 19.2578 22.3918C19.574 22.336 19.84 22.2672 20.0558 22.1854C20.4278 22.0366 20.7552 21.8208 21.038 21.5381C21.3207 21.2553 21.5365 20.9279 21.6853 20.5559C21.7671 20.3401 21.836 20.0741 21.8918 19.7579C21.9476 19.4417 21.9848 19.0585 22.0034 18.6084C22.022 18.1582 22.0331 17.7992 22.0368 17.5314C22.0406 17.2635 22.0406 16.871 22.0368 16.3539C22.0331 15.8368 22.0313 15.5522 22.0313 15.5001C22.0313 15.448 22.0331 15.1634 22.0368 14.6463C22.0406 14.1292 22.0406 13.7367 22.0368 13.4689C22.0331 13.201 22.022 12.842 22.0034 12.3918C21.9848 11.9417 21.9476 11.5585 21.8918 11.2423C21.836 10.9261 21.7671 10.6601 21.6853 10.4443C21.5365 10.0723 21.3207 9.7449 21.038 9.46216C20.7552 9.17942 20.4278 8.96365 20.0558 8.81484C19.84 8.73299 19.574 8.66417 19.2578 8.60836C18.9416 8.55256 18.5584 8.51536 18.1083 8.49676C17.6581 8.47816 17.2991 8.467 17.0313 8.46327C16.7634 8.45955 16.3709 8.45955 15.8538 8.46327ZM23.5156 11.9622C23.5528 12.6169 23.5714 13.7962 23.5714 15.5001C23.5714 17.204 23.5528 18.3833 23.5156 19.0381C23.4412 20.5857 22.9799 21.7836 22.1317 22.6318C21.2835 23.48 20.0856 23.9413 18.538 24.0157C17.8832 24.0529 16.7039 24.0715 15 24.0715C13.2961 24.0715 12.1168 24.0529 11.4621 24.0157C9.91445 23.9413 8.71654 23.48 7.86832 22.6318C7.02011 21.7836 6.5588 20.5857 6.48439 19.0381C6.44719 18.3833 6.42859 17.204 6.42859 15.5001C6.42859 13.7962 6.44719 12.6169 6.48439 11.9622C6.5588 10.4145 7.02011 9.21662 7.86832 8.36841C8.71654 7.5202 9.91445 7.05889 11.4621 6.98448C12.1168 6.94728 13.2961 6.92868 15 6.92868C16.7039 6.92868 17.8832 6.94728 18.538 6.98448C20.0856 7.05889 21.2835 7.5202 22.1317 8.36841C22.9799 9.21662 23.4412 10.4145 23.5156 11.9622Z" fill="#1E1E1E"/>
</g>
<defs>
<clipPath id="clip0_86_273">
<rect width="17.16" height="20" fill="white" transform="matrix(1 0 0 -1 6.42001 25.5)"/>
</clipPath>
</defs>
</svg>
