<svg width="30" height="31" viewBox="0 0 30 31" fill="none" xmlns="http://www.w3.org/2000/svg">
<rect y="0.5" width="30" height="30" rx="15" fill="white"/>
<g clip-path="url(#clip0_86_279)">
<g clip-path="url(#clip1_86_279)">
<g clip-path="url(#clip2_86_279)">
<path d="M23.995 13.6492C22.2271 13.6534 20.5026 13.1021 19.065 12.073V19.2498C19.0645 20.579 18.6583 21.8764 17.9005 22.9684C17.1428 24.0605 16.0697 24.8952 14.8248 25.361C13.5798 25.8267 12.2224 25.9013 10.9339 25.5747C9.64543 25.2481 8.48737 24.536 7.61458 23.5334C6.74178 22.5309 6.19584 21.2859 6.04977 19.9647C5.90369 18.6436 6.16444 17.3093 6.79714 16.1403C7.42984 14.9714 8.40434 14.0234 9.59034 13.4232C10.7763 12.8231 12.1173 12.5993 13.4339 12.7818V16.3914C12.8314 16.2019 12.1845 16.2076 11.5854 16.4078C10.9864 16.6079 10.4659 16.9921 10.0982 17.5057C9.73063 18.0193 9.53469 18.6359 9.53841 19.2675C9.54213 19.8991 9.74532 20.5133 10.119 21.0225C10.4926 21.5317 11.0176 21.9099 11.619 22.1029C12.2203 22.2959 12.8673 22.294 13.4675 22.0974C14.0677 21.9008 14.5905 21.5196 14.9611 21.0082C15.3317 20.4968 15.5313 19.8813 15.5313 19.2498V5.21997H19.065C19.0626 5.51839 19.0876 5.8164 19.1397 6.11023C19.2625 6.76618 19.5178 7.39018 19.8901 7.94406C20.2623 8.49795 20.7436 8.97008 21.3045 9.33157C22.1026 9.85926 23.0383 10.1405 23.995 10.1403V13.6492Z" fill="#1E1E1E"/>
</g>
</g>
</g>
<defs>
<clipPath id="clip0_86_279">
<rect width="18" height="20.56" fill="white" transform="translate(6 5.21997)"/>
</clipPath>
<clipPath id="clip1_86_279">
<rect width="18" height="20.56" fill="white" transform="translate(6 5.21997)"/>
</clipPath>
<clipPath id="clip2_86_279">
<rect width="17.99" height="20.56" fill="white" transform="translate(6.005 5.21997)"/>
</clipPath>
</defs>
</svg>
