<svg width="30" height="31" viewBox="0 0 30 31" fill="none" xmlns="http://www.w3.org/2000/svg">
<rect y="0.5" width="30" height="30" rx="15" fill="white"/>
<g clip-path="url(#clip0_86_267)">
<path d="M18.9286 5.63403V8.58046H17.1764C16.5365 8.58046 16.105 8.71439 15.8817 8.98225C15.6585 9.2501 15.5469 9.65189 15.5469 10.1876V12.297H18.817L18.3817 15.6006H15.5469V24.0715H12.1317V15.6006H9.28577V12.297H12.1317V9.86394C12.1317 8.48001 12.5187 7.40673 13.2925 6.64408C14.0663 5.88143 15.0968 5.5001 16.384 5.5001C17.4777 5.5001 18.3259 5.54475 18.9286 5.63403Z" fill="#1E1E1E"/>
</g>
<defs>
<clipPath id="clip0_86_267">
<rect width="11.44" height="20" fill="white" transform="matrix(1 0 0 -1 9.28003 25.5)"/>
</clipPath>
</defs>
</svg>
