<svg width="30" height="31" viewBox="0 0 30 31" fill="none" xmlns="http://www.w3.org/2000/svg">
<rect y="0.5" width="30" height="30" rx="15" fill="white"/>
<g clip-path="url(#clip0_86_270)">
<path d="M23.2936 10.0535C22.7951 10.7827 22.1924 11.404 21.4855 11.9174C21.493 12.0215 21.4967 12.1778 21.4967 12.3861C21.4967 13.3534 21.3553 14.3188 21.0726 15.2823C20.7899 16.2459 20.3602 17.1704 19.7835 18.0558C19.2069 18.9412 18.5205 19.7243 17.7244 20.4051C16.9282 21.0859 15.9684 21.6291 14.8449 22.0346C13.7214 22.4401 12.5198 22.6428 11.24 22.6428C9.22363 22.6428 7.37839 22.1034 5.70428 21.0245C5.9647 21.0543 6.25488 21.0692 6.57482 21.0692C8.24893 21.0692 9.74074 20.5558 11.0503 19.529C10.269 19.5141 9.56961 19.2741 8.95205 18.8091C8.33449 18.3441 7.91039 17.7507 7.67973 17.029C7.92527 17.0662 8.1522 17.0848 8.36053 17.0848C8.68048 17.0848 8.9967 17.0439 9.3092 16.962C8.47586 16.7909 7.78576 16.3761 7.23888 15.7176C6.69201 15.0591 6.41857 14.2946 6.41857 13.4241V13.3794C6.92452 13.6622 7.46768 13.8147 8.04803 13.837C7.55696 13.5096 7.16634 13.0818 6.87616 12.5535C6.58598 12.0253 6.44089 11.4523 6.44089 10.8348C6.44089 10.18 6.60458 9.57363 6.93196 9.01559C7.83226 10.1242 8.92787 11.0115 10.2188 11.6774C11.5097 12.3433 12.8918 12.7135 14.365 12.7879C14.3055 12.5052 14.2757 12.2299 14.2757 11.962C14.2757 10.965 14.6273 10.1149 15.3304 9.4118C16.0335 8.70867 16.8836 8.35711 17.8806 8.35711C18.9223 8.35711 19.8003 8.73657 20.5146 9.4955C21.3256 9.33925 22.0882 9.04907 22.8025 8.62496C22.5272 9.48062 21.9989 10.1428 21.2177 10.6116C21.9096 10.5372 22.6016 10.3512 23.2936 10.0535Z" fill="#1E1E1E"/>
</g>
<defs>
<clipPath id="clip0_86_270">
<rect width="18.58" height="20" fill="white" transform="matrix(1 0 0 -1 5.70001 25.5)"/>
</clipPath>
</defs>
</svg>
