<svg width="30" height="31" viewBox="0 0 30 31" fill="none" xmlns="http://www.w3.org/2000/svg">
<rect y="0.5" width="30" height="30" rx="15" fill="white"/>
<g clip-path="url(#clip0_86_276)">
<path d="M16.9643 19.3839V21.7388C16.9643 22.2374 16.8192 22.4866 16.529 22.4866C16.3579 22.4866 16.1905 22.4048 16.0268 22.2411V18.8817C16.1905 18.718 16.3579 18.6362 16.529 18.6362C16.8192 18.6362 16.9643 18.8854 16.9643 19.3839ZM20.7366 19.3951V19.9085H19.7322V19.3951C19.7322 18.8891 19.8996 18.6362 20.2344 18.6362C20.5692 18.6362 20.7366 18.8891 20.7366 19.3951ZM9.95537 16.9621H11.1496V15.9129H7.66743V16.9621H8.8393V23.3125H9.95537V16.9621ZM13.1697 23.3125H14.163V17.7991H13.1697V22.0179C12.9464 22.3304 12.7344 22.4866 12.5335 22.4866C12.3996 22.4866 12.3214 22.4085 12.2991 22.2522C12.2917 22.2299 12.288 22.0997 12.288 21.8616V17.7991H11.2947V22.1629C11.2947 22.5275 11.3244 22.7991 11.3839 22.9777C11.4732 23.253 11.689 23.3906 12.0313 23.3906C12.3884 23.3906 12.7679 23.1637 13.1697 22.7098V23.3125ZM17.9576 21.6607V19.4621C17.9576 18.9189 17.9241 18.5506 17.8572 18.3571C17.7307 17.9405 17.4665 17.7321 17.0647 17.7321C16.6927 17.7321 16.3467 17.933 16.0268 18.3348V15.9129H15.0335V23.3125H16.0268V22.7768C16.3616 23.186 16.7076 23.3906 17.0647 23.3906C17.4665 23.3906 17.7307 23.186 17.8572 22.7768C17.9241 22.5759 17.9576 22.2039 17.9576 21.6607ZM21.7299 21.5491V21.404H20.7143C20.7143 21.7835 20.7069 22.0104 20.692 22.0848C20.6399 22.3527 20.4911 22.4866 20.2456 22.4866C19.9033 22.4866 19.7322 22.2299 19.7322 21.7165V20.7455H21.7299V19.596C21.7299 19.0082 21.6295 18.5766 21.4286 18.3013C21.1384 17.9219 20.7441 17.7321 20.2456 17.7321C19.7396 17.7321 19.3415 17.9219 19.0514 18.3013C18.843 18.5766 18.7389 19.0082 18.7389 19.596V21.5268C18.7389 22.1146 18.8467 22.5461 19.0625 22.8214C19.3527 23.2009 19.7545 23.3906 20.2679 23.3906C20.8036 23.3906 21.2054 23.1935 21.4732 22.7991C21.6072 22.5982 21.6853 22.3973 21.7076 22.1964C21.7225 22.1295 21.7299 21.9137 21.7299 21.5491ZM14.9442 11.3594V9.01562C14.9442 8.50223 14.7842 8.24553 14.4643 8.24553C14.1444 8.24553 13.9844 8.50223 13.9844 9.01562V11.3594C13.9844 11.8802 14.1444 12.1406 14.4643 12.1406C14.7842 12.1406 14.9442 11.8802 14.9442 11.3594ZM22.9688 19.7411C22.9688 21.4821 22.872 22.7842 22.6786 23.6473C22.5744 24.0863 22.3586 24.4546 22.0313 24.7522C21.7039 25.0499 21.3244 25.221 20.8929 25.2656C19.5238 25.4219 17.4591 25.5 14.6987 25.5C11.9383 25.5 9.87353 25.4219 8.50448 25.2656C8.07293 25.221 7.69161 25.0499 7.36051 24.7522C7.02941 24.4546 6.81549 24.0863 6.71877 23.6473C6.52532 22.814 6.42859 21.5119 6.42859 19.7411C6.42859 18 6.52532 16.6979 6.71877 15.8348C6.82293 15.3958 7.03871 15.0275 7.36609 14.7299C7.69347 14.4323 8.07665 14.2574 8.51564 14.2054C9.87725 14.0565 11.9383 13.9821 14.6987 13.9821C17.4591 13.9821 19.5238 14.0565 20.8929 14.2054C21.3244 14.2574 21.7057 14.4323 22.0368 14.7299C22.3679 15.0275 22.5819 15.3958 22.6786 15.8348C22.872 16.6682 22.9688 17.9702 22.9688 19.7411ZM11.8304 5.5H12.9688L11.6183 9.95312V12.9777H10.5022V9.95312C10.3981 9.40253 10.1711 8.61384 9.82145 7.58705C9.54615 6.82068 9.30433 6.125 9.096 5.5H10.279L11.0714 8.43527L11.8304 5.5ZM15.9598 9.21652V11.1696C15.9598 11.7723 15.8557 12.2113 15.6473 12.4866C15.3646 12.8661 14.9703 13.0558 14.4643 13.0558C13.9658 13.0558 13.5752 12.8661 13.2924 12.4866C13.0841 12.2039 12.9799 11.7649 12.9799 11.1696V9.21652C12.9799 8.62128 13.0841 8.18601 13.2924 7.91071C13.5752 7.53125 13.9658 7.34152 14.4643 7.34152C14.9703 7.34152 15.3646 7.53125 15.6473 7.91071C15.8557 8.18601 15.9598 8.62128 15.9598 9.21652ZM19.6987 7.40848V12.9777H18.6831V12.3638C18.2887 12.8251 17.9055 13.0558 17.5335 13.0558C17.1912 13.0558 16.9717 12.9182 16.875 12.6429C16.8155 12.4643 16.7857 12.1853 16.7857 11.8058V7.40848H17.8014V11.5045C17.8014 11.75 17.8051 11.8802 17.8125 11.8951C17.8348 12.0588 17.913 12.1406 18.0469 12.1406C18.2478 12.1406 18.4598 11.9807 18.6831 11.6607V7.40848H19.6987Z" fill="#1E1E1E"/>
</g>
<defs>
<clipPath id="clip0_86_276">
<rect width="17.16" height="20" fill="white" transform="matrix(1 0 0 -1 6.42001 25.5)"/>
</clipPath>
</defs>
</svg>
